<?xml version="1.0" encoding="utf-8"?><!DOCTYPE svg PUBLIC "-//W3C//DTD SVG 1.1//EN" "http://www.w3.org/Graphics/SVG/1.1/DTD/svg11.dtd"><svg version="1.1" xmlns="http://www.w3.org/2000/svg" xmlns:xlink="http://www.w3.org/1999/xlink" width="78.75" height="60" viewBox="0 0 42 32" data-code="57356" data-tags="browser,window,software,program"><g fill="#364577" transform="scale(0.03125 0.03125)"><path d="M1328 320c-8.832 0-16 7.168-16 16v640c0 8.832-7.168 16-16 16h-1248c-8.832 0-16-7.168-16-16v-640c0-8.832-7.168-16-16-16s-16 7.168-16 16v640c0 26.464 21.536 48 48 48h1248c26.464 0 48-21.536 48-48v-640c0-8.832-7.168-16-16-16zM1296 0h-1248c-26.464 0-48 21.536-48 48v192c0 8.832 7.168 16 16 16h1312c8.832 0 16-7.168 16-16v-192c0-26.464-21.536-48-48-48zM1312 224h-1280v-176c0-8.832 7.168-16 16-16h1248c8.832 0 16 7.168 16 16v176zM560 896c8.832 0 16-7.168 16-16v-512c0-8.832-7.168-16-16-16h-416c-8.832 0-16 7.168-16 16v512c0 8.832 7.168 16 16 16h416zM160 384h384v480h-384v-480zM720 480h480c8.832 0 16-7.168 16-16s-7.168-16-16-16h-480c-8.832 0-16 7.168-16 16s7.168 16 16 16zM720 640h480c8.832 0 16-7.168 16-16s-7.168-16-16-16h-480c-8.832 0-16 7.168-16 16s7.168 16 16 16zM720 800h480c8.832 0 16-7.168 16-16s-7.168-16-16-16h-480c-8.832 0-16 7.168-16 16s7.168 16 16 16zM96 128c0 17.673 14.327 32 32 32s32-14.327 32-32c0-17.673-14.327-32-32-32-17.673 0-32 14.327-32 32zM224 128c0 17.673 14.327 32 32 32s32-14.327 32-32c0-17.673-14.327-32-32-32-17.673 0-32 14.327-32 32zM352 128c0 17.673 14.327 32 32 32s32-14.327 32-32c0-17.673-14.327-32-32-32-17.673 0-32 14.327-32 32z" /></g></svg>