<?xml version="1.0" encoding="utf-8"?><!DOCTYPE svg PUBLIC "-//W3C//DTD SVG 1.1//EN" "http://www.w3.org/Graphics/SVG/1.1/DTD/svg11.dtd"><svg version="1.1" xmlns="http://www.w3.org/2000/svg" xmlns:xlink="http://www.w3.org/1999/xlink" width="60" height="60" viewBox="0 0 32 32" data-code="57372" data-tags="edit,pencil,write,blog"><g fill="#364577" transform="scale(0.03125 0.03125)"><path d="M48 1024h928c26.464 0 48-21.536 48-48v-928c0-26.464-21.536-48-48-48h-928c-26.464 0-48 21.536-48 48v928c0 26.464 21.536 48 48 48zM32 48c0-8.832 7.2-16 16-16h928c8.8 0 16 7.168 16 16v928c0 8.832-7.2 16-16 16h-928c-8.8 0-16-7.168-16-16v-928zM128 911.328c1.536 0 3.072-0.224 4.576-0.672l320-95.328c2.592-0.768 4.928-2.176 6.816-4.064l322.88-326.56c0.736-0.768 1.12-1.696 1.664-2.56l117.056-117.056c19.424-19.424 19.424-51.040 0-70.496l-167.552-167.488c-19.424-19.424-51.040-19.456-70.464 0l-119.648 119.648c-0.768 0.768-1.152 1.728-1.728 2.592l-323.776 323.808c-1.792 1.792-3.136 3.968-3.904 6.368l-101.12 310.88c-1.856 5.664-0.384 11.872 3.744 16.128 3.040 3.104 7.2 4.8 11.456 4.8zM555.488 280.672l33.28 33.28-272.736 274.016-55.264-12.544 294.72-294.752zM336 613.28l275.424-276.672 77.888 77.888-279.84 273.504h-73.472v-74.72zM748.32 473.504l-295.872 299.264-18.432-63.968 277.888-271.648 36.416 36.352zM239.776 603.488l64.224 14.592v85.92c0 8.832 7.168 16 16 16h83.968l20.256 70.4-271.584 80.896 87.136-267.808zM685.6 149.728c6.976-6.944 18.304-6.912 25.216 0l167.52 167.52c6.976 6.944 6.976 18.272 0 25.248l-107.904 107.904-192.736-192.736 107.904-107.936z" /></g></svg>